<svg xmlns="http://www.w3.org/2000/svg" xmlns:xlink="http://www.w3.org/1999/xlink" version="1.1" id="Your_Icon" x="0px" y="0px" width="100px" height="100px" viewBox="0 0 100 100" enable-background="new 0 0 100 100" xml:space="preserve">
<g>
	<g>
		<g>
		</g>
	</g>
	<g>
	</g>
</g>
<g>
	<path d="M75.444,35.409c-0.077-0.506-0.451-0.652-0.883-0.686c-0.334-0.027-0.675-0.008-1.013-0.008   c-0.004-0.072-0.008-0.144-0.011-0.215c-0.003-0.902,0.004-1.801-0.006-2.703c-0.018-1.598-0.197-3.174-0.787-4.673   c-0.271-0.689-1.142-1.891-1.142-1.891c-0.018-0.296-3.1-2.847-3.72-3.196c-0.609-0.559-1.263-1.075-1.814-1.691   c-0.185-0.206-0.592-0.938-0.638-1.07c-0.016-0.044-0.033-0.089-0.053-0.133c-0.248-0.605-0.496-1.22-0.663-1.852   c-0.692-2.623-0.642-5.346-1.024-8.01c-0.123-0.871-0.194-1.753-0.371-2.612c-0.191-0.92-0.904-1.391-1.728-1.689   c-1.349-0.49-2.769-0.618-4.179-0.825c-2.1-0.307-4.216-0.418-6.326-0.511c-2.343-0.101-4.692-0.011-7.041,0.175   c-2.339,0.186-4.671,0.391-6.943,0.961c-1.039,0.261-2.119,0.681-2.347,1.985c-0.33,1.883-0.523,3.782-0.698,5.682   c-0.152,1.661-0.255,3.328-0.705,4.941c-0.388,1.391-0.991,2.668-2.08,3.687c-0.351,0.328-0.651,0.594-1.069,0.967   c-1.465,0.807-2.738,1.85-3.779,3.161c-1.406,1.771-1.878,3.888-1.957,6.045c-0.126,3.52,0.121,7.042,0,10.566   c-0.088,2.634-0.097,5.272,0,7.908c0.043,1.145,0.006,2.295,0,3.438c-0.013,2.561-0.144,5.123,0,7.686   c0.085,1.521-0.007,3.052,0,4.579c0.007,1.58,0.016,3.166,0.208,4.741c0.083,0.679,0.088,1.383,0.444,2.006   c0.156,0.675,0.372,1.32,0.723,1.926c1.027,1.771,2.609,2.909,4.352,3.871c0.133,0.159,0.18,0.229,0.294,0.312   c0.759,0.56,1.399,1.229,1.901,2.028c0.491,0.779,0.716,1.674,1.093,2.502c0.278,1.377,0.417,2.773,0.553,4.169   c0.181,1.861,0.357,3.724,0.58,5.58c0.151,1.261,0.734,2.115,1.989,2.518c1.022,0.329,2.065,0.498,3.12,0.671   c1.517,0.251,3.045,0.388,4.571,0.499c1.816,0.13,3.642,0.154,5.468,0.15c1.392-0.001,2.778-0.098,4.167-0.162   c1.343-0.062,2.677-0.257,4.015-0.424c1.301-0.16,2.597-0.361,3.828-0.85c0.867-0.344,1.413-0.938,1.587-1.883   c0.355-1.917,0.469-3.861,0.671-5.793c0.118-1.136,0.234-2.27,0.399-3.398c0.118-0.807,0.477-1.535,0.616-2.329   c0.519-1.22,1.314-2.243,2.267-3.153c0.251-0.251,0.283-0.258,0.567-0.459c0.321-0.187,0.646-0.369,0.962-0.562   c1.275-0.775,2.315-1.793,3.133-3.043c0.224-0.085,0.844-1.485,0.981-1.938c0.627-2.036,0.575-4.449,0.575-6.233   c0-0.302,0.552-0.093,0.552-0.541c0.016-0.217,0.064-13.835,0-13.953c0.005-0.561-0.575-0.024-0.575-1.156   c0-1.786,0.006-3.571,0.002-5.356c-0.001-0.285,0.003-0.563,0.136-0.825c0.227,0,0.828,0.083,0.904,0.007   c0.561-0.033,0.883-0.318,1.005-0.874C75.632,43.124,75.621,35.884,75.444,35.409z M71.467,69.583c0,3.888-3.383,7.041-7.557,7.041   H34.269c-4.174,0-7.557-3.153-7.557-7.041V30.509c0-3.888,3.383-7.042,7.557-7.042H63.91c4.174,0,7.557,3.153,7.557,7.042V69.583z"/>
	<path d="M60.741,42.276c0.036-0.03,0.069-0.059,0.103-0.087C60.811,42.218,60.777,42.247,60.741,42.276z"/>
	<g>
		<rect x="48.769" y="33.562" width="0.534" height="1.292"/>
		<rect x="48.769" y="65.69" width="0.534" height="1.293"/>
		<rect x="64.206" y="49.788" width="1.291" height="0.534"/>
		<rect x="32.562" y="49.79" width="1.293" height="0.535"/>
		<rect x="62.476" y="41.485" transform="matrix(0.4985 0.8669 -0.8669 0.4985 67.9884 -33.262)" width="0.533" height="1.293"/>
		<rect x="56.681" y="35.703" transform="matrix(0.8669 0.4984 -0.4984 0.8669 25.6938 -23.5467)" width="0.534" height="1.293"/>
		<rect x="40.852" y="35.703" transform="matrix(0.8665 -0.4992 0.4992 0.8665 -12.6557 25.379)" width="0.533" height="1.293"/>
		<rect x="35.07" y="41.498" transform="matrix(0.5007 -0.8656 0.8656 0.5007 -18.8375 51.6317)" width="0.532" height="1.293"/>
		<rect x="35.082" y="57.329" transform="matrix(-0.4984 -0.8669 0.8669 -0.4984 2.7051 117.5163)" width="0.534" height="1.293"/>
		<rect x="40.877" y="63.112" transform="matrix(-0.8651 -0.5016 0.5016 -0.8651 44.7513 139.5534)" width="0.533" height="1.293"/>
		<rect x="56.688" y="63.111" transform="matrix(-0.8661 0.4999 -0.4999 -0.8661 138.1548 90.5073)" width="0.533" height="1.294"/>
		<rect x="62.469" y="57.315" transform="matrix(-0.4977 0.8673 -0.8673 -0.4977 144.2331 32.3971)" width="0.534" height="1.293"/>
	</g>
	<path d="M61.514,41.318c-0.017-0.094-0.051-0.185-0.11-0.266c-0.211-0.284-0.624-0.333-0.924-0.109l-9.692,7.066   c-0.197,0.148-0.294,0.377-0.275,0.598c-0.163,0.339-0.971,0.778-1.295,0.739c-0.191-0.63,0.071-1.312-0.191-1.938   c-0.208,0.639-0.018,1.301-0.164,1.938c-0.351,0.073-1.097-0.303-1.292-0.664l0,0c-0.005-0.207-0.111-0.413-0.303-0.543   l-4.593-3.13c-0.307-0.21-0.717-0.144-0.916,0.148c-0.199,0.292-0.111,0.698,0.196,0.908l4.593,3.131   c0.212,0.145,0.471,0.155,0.677,0.054c0,0,0,0-0.001,0c0.558,0.084,0.966,0.373,1.127,1.023c0.061,0.242,0.25,0.417,0.512,0.478   c0.018,0.128,0.051,0.257,0.051,0.385c0.004,2.926,0.004,11.916,0,15.169h0.246c-0.003-3.286-0.003-12.19-0.01-15.162   c0-0.186,0.063-0.32,0.19-0.439c0.242-0.113,0.371-0.308,0.424-0.562c0.071-0.341,0.729-1.05,1.067-1.043   c0.219,0.116,0.5,0.101,0.72-0.064l9.692-7.066c0.154-0.114,0.245-0.277,0.271-0.447C61.532,41.455,61.529,41.388,61.514,41.318z    M49.022,50.288c-0.122-0.008-0.208-0.092-0.225-0.206c-0.02-0.15,0.079-0.244,0.217-0.263c0.158-0.022,0.217,0.101,0.251,0.232   C49.239,50.187,49.182,50.298,49.022,50.288z"/>
</g>
</svg>